<svg version="1.1" xmlns="http://www.w3.org/2000/svg" width="1280" height="105">
<path d="M0 0 C9.9 0 19.8 0 30 0 C30.495 6.93 30.495 6.93 31 14 C37.93 14.495 37.93 14.495 45 15 C45.495 21.93 45.495 21.93 46 29 C50.29 29.33 54.58 29.66 59 30 C59 25.05 59 20.1 59 15 C63.95 15 68.9 15 74 15 C74 10.05 74 5.1 74 0 C84.23 0 94.46 0 105 0 C105.02254853 13.54264475 105.04091364 27.08527713 105.05181217 40.62793636 C105.05704162 46.91562024 105.06414039 53.20329066 105.07543945 59.4909668 C105.08626614 65.55337723 105.09227637 71.61577469 105.09487724 77.67819405 C105.09673189 79.99676277 105.10035325 82.31533074 105.10573006 84.63389397 C105.11293758 87.86914508 105.11399106 91.10434183 105.11352539 94.33959961 C105.11712067 95.30848114 105.12071594 96.27736267 105.12442017 97.27560425 C105.1230455 98.15205093 105.12167084 99.02849762 105.12025452 99.9315033 C105.12117631 100.69751327 105.1220981 101.46352324 105.12304783 102.25274563 C105 104 105 104 104 105 C101.78144736 105.08783542 99.56011504 105.10694609 97.33984375 105.09765625 C96.12417725 105.09515869 94.90851074 105.09266113 93.65600586 105.09008789 C91.32034546 105.07643188 91.32034546 105.07643188 88.9375 105.0625 C84.008125 105.041875 79.07875 105.02125 74 105 C74 85.53 74 66.06 74 46 C69.38 46 64.76 46 60 46 C60 55.57 60 65.14 60 75 C54.72 75 49.44 75 44 75 C44 65.43 44 55.86 44 46 C39.38 46 34.76 46 30 46 C30 65.47 30 84.94 30 105 C20.1 105 10.2 105 0 105 C0 70.35 0 35.7 0 0 Z " fill="#030c0b" transform="translate(580,0)"/>
<path d="M0 0 C29.7 0 59.4 0 90 0 C90 4.95 90 9.9 90 15 C94.95 15 99.9 15 105 15 C105 29.85 105 44.7 105 60 C90.645 60.495 90.645 60.495 76 61 C75.67 65.29 75.34 69.58 75 74 C79.95 74 84.9 74 90 74 C90 78.95 90 83.9 90 89 C94.95 89 99.9 89 105 89 C105.020625 91.454375 105.04125 93.90875 105.0625 96.4375 C105.071604 97.21150146 105.08070801 97.98550293 105.09008789 98.78295898 C105.09724913 100.52221717 105.05024702 102.26145304 105 104 C104 105 104 105 102.17137146 105.12025452 C100.97557213 105.1169236 100.97557213 105.1169236 99.75561523 105.11352539 C98.40432777 105.11341209 98.40432777 105.11341209 97.02574158 105.11329651 C96.04658279 105.10813522 95.06742401 105.10297394 94.05859375 105.09765625 C93.06118668 105.0962413 92.0637796 105.09482635 91.03614807 105.09336853 C87.83656876 105.08775114 84.63705831 105.07519571 81.4375 105.0625 C79.27408955 105.05748724 77.11067801 105.05292395 74.94726562 105.04882812 C69.63148371 105.03777606 64.31575354 105.02049979 59 105 C59 100.05 59 95.1 59 90 C56.710625 90.020625 54.42125 90.04125 52.0625 90.0625 C49.70833668 90.08370868 47.35313555 90.07271741 45 90 C44 89 44 89 43.90234375 85.83984375 C43.91394531 84.55207031 43.92554688 83.26429687 43.9375 81.9375 C43.94652344 80.64714844 43.95554687 79.35679688 43.96484375 78.02734375 C43.97644531 77.02832031 43.98804688 76.02929688 44 75 C37.565 75.495 37.565 75.495 31 76 C30.67 85.57 30.34 95.14 30 105 C20.1 105 10.2 105 0 105 C0 70.35 0 35.7 0 0 Z M30 16 C30 30.19 30 44.38 30 59 C39.57 59 49.14 59 59 59 C59.33 54.38 59.66 49.76 60 45 C64.62 44.67 69.24 44.34 74 44 C74 34.76 74 25.52 74 16 C59.48 16 44.96 16 30 16 Z " fill="#030c0b" transform="translate(461,0)"/>
<path d="M0 0 C9.9 0 19.8 0 30 0 C30.495 6.93 30.495 6.93 31 14 C37.93 14.495 37.93 14.495 45 15 C45.495 21.93 45.495 21.93 46 29 C52.93 29.495 52.93 29.495 60 30 C60 34.62 60 39.24 60 44 C64.62 44 69.24 44 74 44 C74 29.48 74 14.96 74 0 C84.23 0 94.46 0 105 0 C105 34.65 105 69.3 105 105 C94.77 105 84.54 105 74 105 C74 95.1 74 85.2 74 75 C69.05 75 64.1 75 59 75 C59 70.05 59 65.1 59 60 C55.5659375 60.0309375 55.5659375 60.0309375 52.0625 60.0625 C49.70833668 60.08370868 47.35313555 60.07271741 45 60 C44 59 44 59 43.90234375 56.05859375 C43.93489583 52.70572917 43.96744792 49.35286458 44 46 C39.38 46 34.76 46 30 46 C30 65.47 30 84.94 30 105 C20.1 105 10.2 105 0 105 C0 70.35 0 35.7 0 0 Z " fill="#030c0b" transform="translate(104,0)"/>
<path d="M0 0 C9.9 0 19.8 0 30 0 C30 14.52 30 29.04 30 44 C34.62 44 39.24 44 44 44 C44 39.38 44 34.76 44 30 C48.95 30 53.9 30 59 30 C59 25.05 59 20.1 59 15 C63.95 15 68.9 15 74 15 C74 10.05 74 5.1 74 0 C84.23 0 94.46 0 105 0 C105 4.95 105 9.9 105 15 C104 16 104 16 100.83984375 16.09765625 C99.55207031 16.08605469 98.26429687 16.07445313 96.9375 16.0625 C95.00197266 16.04896484 95.00197266 16.04896484 93.02734375 16.03515625 C92.02832031 16.02355469 91.02929688 16.01195313 90 16 C90.01160156 16.99902344 90.02320313 17.99804688 90.03515625 19.02734375 C90.04417969 20.31769531 90.05320312 21.60804687 90.0625 22.9375 C90.07410156 24.22527344 90.08570313 25.51304688 90.09765625 26.83984375 C90 30 90 30 89 31 C86.64686445 31.07271741 84.29166332 31.08370868 81.9375 31.0625 C80.00197266 31.04896484 80.00197266 31.04896484 78.02734375 31.03515625 C77.02832031 31.02355469 76.02929688 31.01195313 75 31 C75.01160156 31.99902344 75.02320313 32.99804688 75.03515625 34.02734375 C75.04417969 35.31769531 75.05320312 36.60804687 75.0625 37.9375 C75.07410156 39.22527344 75.08570313 40.51304688 75.09765625 41.83984375 C75 45 75 45 74 46 C71.64686445 46.07271741 69.29166332 46.08370868 66.9375 46.0625 C65.00197266 46.04896484 65.00197266 46.04896484 63.02734375 46.03515625 C62.02832031 46.02355469 61.02929688 46.01195312 60 46 C60 50.29 60 54.58 60 59 C61.49853516 58.98259766 61.49853516 58.98259766 63.02734375 58.96484375 C64.31769531 58.95582031 65.60804687 58.94679687 66.9375 58.9375 C68.86916016 58.92009766 68.86916016 58.92009766 70.83984375 58.90234375 C74 59 74 59 75 60 C75.14426614 64.66845228 75.04208415 69.32865953 75 74 C79.95 74 84.9 74 90 74 C90 78.95 90 83.9 90 89 C92.289375 88.979375 94.57875 88.95875 96.9375 88.9375 C99.29166332 88.91629132 101.64686445 88.92728259 104 89 C105 90 105 90 105.1328125 93.125 C105.13023438 94.40375 105.12765625 95.6825 105.125 97 C105.12886719 98.918125 105.12886719 98.918125 105.1328125 100.875 C105 104 105 104 104 105 C102.58774954 105.0928726 101.17091066 105.11746772 99.75561523 105.11352539 C98.40432777 105.11341209 98.40432777 105.11341209 97.02574158 105.11329651 C96.04658279 105.10813522 95.06742401 105.10297394 94.05859375 105.09765625 C93.06118668 105.0962413 92.0637796 105.09482635 91.03614807 105.09336853 C87.83656876 105.08775114 84.63705831 105.07519571 81.4375 105.0625 C79.27408955 105.05748724 77.11067801 105.05292395 74.94726562 105.04882812 C69.63148371 105.03777606 64.31575354 105.02049979 59 105 C59 100.05 59 95.1 59 90 C54.05 90 49.1 90 44 90 C44 85.05 44 80.1 44 75 C37.565 75.495 37.565 75.495 31 76 C30.67 85.57 30.34 95.14 30 105 C20.1 105 10.2 105 0 105 C0 70.35 0 35.7 0 0 Z " fill="#030c0b" transform="translate(1056,0)"/>
<path d="M0 0 C15.18 0 30.36 0 46 0 C46 4.95 46 9.9 46 15 C50.95 15 55.9 15 61 15 C61 19.95 61 24.9 61 30 C65.95 30 70.9 30 76 30 C76.02255209 39.63113018 76.0409157 49.26224295 76.05181217 58.89339352 C76.05704074 63.36505549 76.06413789 67.83669853 76.07543945 72.30834961 C76.08626929 76.62011973 76.09227704 80.93187159 76.09487724 85.24365425 C76.09673132 86.89236298 76.1003516 88.54107066 76.10573006 90.18977165 C76.11294178 92.49103872 76.11399089 94.7922294 76.11352539 97.09350586 C76.115746 98.4058873 76.11796661 99.71826874 76.12025452 101.07041931 C76 104 76 104 75 105 C72.78144736 105.08783542 70.56011504 105.10694609 68.33984375 105.09765625 C67.12417725 105.09515869 65.90851074 105.09266113 64.65600586 105.09008789 C62.32034546 105.07643188 62.32034546 105.07643188 59.9375 105.0625 C55.008125 105.041875 50.07875 105.02125 45 105 C45 95.1 45 85.2 45 75 C30.81 75.33 16.62 75.66 2 76 C1.67 85.57 1.34 95.14 1 105 C-8.9 105 -18.8 105 -29 105 C-29 80.25 -29 55.5 -29 30 C-24.38 29.67 -19.76 29.34 -15 29 C-14.67 24.38 -14.34 19.76 -14 15 C-9.38 15 -4.76 15 0 15 C0 10.05 0 5.1 0 0 Z M16 16 C16 20.95 16 25.9 16 31 C11.05 31 6.1 31 1 31 C1 40.24 1 49.48 1 59 C15.52 59 30.04 59 45 59 C45 49.76 45 40.52 45 31 C38.07 30.505 38.07 30.505 31 30 C30.67 25.38 30.34 20.76 30 16 C25.38 16 20.76 16 16 16 Z " fill="#030c0b" transform="translate(1204,0)"/>
<path d="M0 0 C14.85 0 29.7 0 45 0 C45 4.95 45 9.9 45 15 C49.95 15 54.9 15 60 15 C60 19.95 60 24.9 60 30 C64.95 30 69.9 30 75 30 C75.02255209 39.63113018 75.0409157 49.26224295 75.05181217 58.89339352 C75.05704074 63.36505549 75.06413789 67.83669853 75.07543945 72.30834961 C75.08626929 76.62011973 75.09227704 80.93187159 75.09487724 85.24365425 C75.09673132 86.89236298 75.1003516 88.54107066 75.10573006 90.18977165 C75.11294178 92.49103872 75.11399089 94.7922294 75.11352539 97.09350586 C75.115746 98.4058873 75.11796661 99.71826874 75.12025452 101.07041931 C75 104 75 104 74 105 C71.78144736 105.08783542 69.56011504 105.10694609 67.33984375 105.09765625 C66.12417725 105.09515869 64.90851074 105.09266113 63.65600586 105.09008789 C61.32034546 105.07643188 61.32034546 105.07643188 58.9375 105.0625 C54.008125 105.041875 49.07875 105.02125 44 105 C44 95.1 44 85.2 44 75 C29.81 75.33 15.62 75.66 1 76 C0.67 85.57 0.34 95.14 0 105 C-9.9 105 -19.8 105 -30 105 C-30 80.25 -30 55.5 -30 30 C-25.38 29.67 -20.76 29.34 -16 29 C-15.67 24.38 -15.34 19.76 -15 15 C-10.38 14.67 -5.76 14.34 -1 14 C-0.67 9.38 -0.34 4.76 0 0 Z M15 16 C15 20.95 15 25.9 15 31 C10.05 31 5.1 31 0 31 C0 40.24 0 49.48 0 59 C14.52 59 29.04 59 44 59 C44 49.76 44 40.52 44 31 C37.07 30.505 37.07 30.505 30 30 C29.67 25.38 29.34 20.76 29 16 C24.38 16 19.76 16 15 16 Z " fill="#030c0b" transform="translate(729,0)"/>
<path d="M0 0 C24.75 0 49.5 0 75 0 C75 4.95 75 9.9 75 15 C79.95 15 84.9 15 90 15 C90 39.75 90 64.5 90 90 C85.05 90 80.1 90 75 90 C75 94.95 75 99.9 75 105 C50.25 105 25.5 105 0 105 C0 100.05 0 95.1 0 90 C-4.95 90 -9.9 90 -15 90 C-15 65.25 -15 40.5 -15 15 C-10.05 15 -5.1 15 0 15 C0 10.05 0 5.1 0 0 Z M15 16 C15 40.09 15 64.18 15 89 C29.52 89 44.04 89 59 89 C59 64.91 59 40.82 59 16 C44.48 16 29.96 16 15 16 Z " fill="#030c0b" transform="translate(357,0)"/>
<path d="M0 0 C34.65 0 69.3 0 105 0 C105 4.95 105 9.9 105 15 C104 16 104 16 101.07041931 16.12025452 C99.75803787 16.11803391 98.44565643 16.11581329 97.09350586 16.11352539 C96.37159561 16.11367142 95.64968536 16.11381744 94.90589905 16.1139679 C92.50885053 16.11326869 90.11187877 16.10547595 87.71484375 16.09765625 C86.05717511 16.0957921 84.39950593 16.09436818 82.74183655 16.09336853 C78.37045786 16.08954312 73.99911219 16.07971265 69.62774658 16.06866455 C65.17045539 16.05845092 60.71315889 16.05387101 56.25585938 16.04882812 C47.50388938 16.0380904 38.7519526 16.02049342 30 16 C30 25.24 30 34.48 30 44 C34.24746094 43.98839844 38.49492187 43.97679687 42.87109375 43.96484375 C46.24907146 43.95841682 49.62704744 43.95299259 53.00502777 43.94824982 C56.57571125 43.9429601 60.14637115 43.93588661 63.71704102 43.92456055 C67.81006097 43.91165824 71.9030558 43.90677094 75.99609375 43.90234375 C77.92418129 43.89460182 77.92418129 43.89460182 79.89122009 43.88670349 C81.07236893 43.88662796 82.25351776 43.88655243 83.47045898 43.88647461 C85.03932106 43.88314369 85.03932106 43.88314369 86.63987732 43.87974548 C89 44 89 44 90 45 C90 49.95 90 54.9 90 60 C70.53 60.33 51.06 60.66 31 61 C30.67 75.52 30.34 90.04 30 105 C20.1 105 10.2 105 0 105 C0 70.35 0 35.7 0 0 Z " fill="#030c0b" transform="translate(223,0)"/>
<path d="M0 0 C29.7 0 59.4 0 90 0 C90 4.95 90 9.9 90 15 C89.67 15.33 89.34 15.66 89 16 C79.43 16 69.86 16 60 16 C60 40.09 60 64.18 60 89 C69.9 89 79.8 89 90 89 C90 94.28 90 99.56 90 105 C60.3 105 30.6 105 0 105 C0 99.72 0 94.44 0 89 C9.57 88.67 19.14 88.34 29 88 C29 64.24 29 40.48 29 16 C19.43 16 9.86 16 0 16 C0 10.72 0 5.44 0 0 Z " fill="#030c0b" transform="translate(0,0)"/>
<path d="M0 0 C29.7 0 59.4 0 90 0 C90 4.95 90 9.9 90 15 C89.67 15.33 89.34 15.66 89 16 C79.43 16 69.86 16 60 16 C60 40.09 60 64.18 60 89 C69.57 89 79.14 89 89 89 C90 90 90 90 90.1328125 93.125 C90.13023438 94.40375 90.12765625 95.6825 90.125 97 C90.12886719 98.918125 90.12886719 98.918125 90.1328125 100.875 C90 104 90 104 89 105 C86.23061034 105.09517803 83.48622841 105.12554265 80.71655273 105.11352539 C79.41423203 105.11374443 79.41423203 105.11374443 78.08560181 105.1139679 C75.20157414 105.11326846 72.3176102 105.10547463 69.43359375 105.09765625 C67.43962133 105.09579218 65.44564845 105.09436823 63.45167542 105.09336853 C58.19254298 105.08954248 52.93343797 105.07971145 47.67431641 105.06866455 C42.31217825 105.0584523 36.95003569 105.05387131 31.58789062 105.04882812 C21.05858167 105.03808926 10.52929311 105.0210118 0 105 C0 99.72 0 94.44 0 89 C9.57 89 19.14 89 29 89 C29 64.91 29 40.82 29 16 C19.43 16 9.86 16 0 16 C0 10.72 0 5.44 0 0 Z " fill="#030c0b" transform="translate(952,0)"/>
<path d="M0 0 C29.7 0 59.4 0 90 0 C90 4.95 90 9.9 90 15 C89.67 15.33 89.34 15.66 89 16 C79.43 16 69.86 16 60 16 C60 45.37 60 74.74 60 105 C50.1 105 40.2 105 30 105 C28.18884376 103.18884376 28.88004624 100.70122499 28.87557983 98.29098511 C28.87917511 97.47171539 28.88277039 96.65244568 28.88647461 95.80834961 C28.88632858 94.94988937 28.88618256 94.09142914 28.8860321 93.20695496 C28.88673153 90.35539262 28.8945253 87.50389475 28.90234375 84.65234375 C28.90420782 82.68079158 28.90563178 80.70923895 28.90663147 78.73768616 C28.91045749 73.53773733 28.92028848 68.33781625 28.93133545 63.13787842 C28.94154778 57.83606339 28.94612871 52.5342439 28.95117188 47.23242188 C28.96191068 36.82160041 28.97950815 26.41080685 29 16 C19.43 16 9.86 16 0 16 C0 10.72 0 5.44 0 0 Z " fill="#030c0b" transform="translate(833,0)"/>
</svg>
